<svg xmlns="http://www.w3.org/2000/svg" viewBox="0 0 64 64" width="64" height="64">
  <rect x="2" y="2" width="60" height="60" rx="13" fill="#1b1512"/>
  <g fill="none" stroke="#d4a24e" stroke-width="2.4" stroke-linejoin="round" stroke-linecap="round">
    <!-- d20 外六边形轮廓 -->
    <path d="M32 7 L53 19 L53 45 L32 57 L11 45 L11 19 Z"/>
    <!-- 顶面正三角 -->
    <path d="M32 17 L45 39 L19 39 Z"/>
    <!-- 三角顶点连到六边形角的棱线 -->
    <path d="M32 17 L32 7 M45 39 L53 45 M19 39 L11 45"/>
    <path d="M32 17 L11 19 M32 17 L53 19 M19 39 L11 19 M45 39 L53 19 M19 39 L32 57 M45 39 L32 57" stroke-width="1.4" opacity="0.55"/>
  </g>
  <text x="32" y="34.5" text-anchor="middle" font-family="Georgia, 'Times New Roman', serif" font-size="12" font-weight="700" fill="#e2b566">20</text>
</svg>
